<svg width="20" height="20" viewBox="0 0 20 20" fill="none" xmlns="http://www.w3.org/2000/svg">
<path d="M13 18.9926H1.6C1.26863 18.9926 1 18.724 1 18.3926V3.59258C1 3.26121 1.26863 2.99258 1.6 2.99258H7V1.59258C7 1.26121 7.26863 0.992584 7.6 0.992584H12.4C12.7314 0.992584 13 1.26121 13 1.59258V6.99258M13 18.9926H18.4C18.7314 18.9926 19 18.724 19 18.3926V7.59258C19 7.26121 18.7314 6.99258 18.4 6.99258H13M13 18.9926V14.9926M13 6.99258V10.9926M13 10.9926H15M13 10.9926V14.9926M13 14.9926H15" stroke="#2E3333" stroke-width="1.5" stroke-linecap="round" stroke-linejoin="round"/>
</svg>
